<?xml version="1.0" standalone="no"?>
<!DOCTYPE svg PUBLIC "-//W3C//DTD SVG 20010904//EN"
 "http://www.w3.org/TR/2001/REC-SVG-20010904/DTD/svg10.dtd">
<svg version="1.0" xmlns="http://www.w3.org/2000/svg"
 width="1280.000000pt" height="1154.000000pt" viewBox="0 0 1280.000000 1154.000000"
 preserveAspectRatio="xMidYMid meet">
<metadata>
Created by potrace 1.15, written by Peter Selinger 2001-2017
</metadata>
<g transform="translate(0.000000,1154.000000) scale(0.100000,-0.100000)"
fill="#000000" stroke="none">
<path d="M4430 11525 c-80 -36 -130 -112 -130 -197 0 -70 20 -107 111 -208
170 -187 297 -389 338 -540 39 -139 23 -297 -41 -425 -47 -93 -136 -214 -312
-425 -286 -342 -388 -497 -460 -698 -74 -206 -74 -451 -1 -677 59 -183 193
-413 355 -608 98 -119 137 -141 235 -135 72 4 118 33 162 99 21 32 27 53 27
102 1 73 -9 93 -109 217 -231 286 -332 545 -296 755 32 180 116 320 393 651
218 262 288 357 356 484 99 186 136 321 135 500 0 175 -32 309 -119 488 -92
191 -353 532 -456 595 -57 35 -137 45 -188 22z"/>
<path d="M5505 11479 c-89 -20 -158 -111 -156 -205 0 -71 17 -100 125 -222
163 -186 262 -340 313 -487 25 -70 28 -94 28 -200 -1 -112 -3 -126 -33 -201
-47 -117 -146 -260 -339 -490 -245 -291 -314 -387 -392 -542 -197 -393 -157
-783 126 -1217 106 -163 231 -312 283 -340 112 -59 260 8 296 133 24 83 9 128
-82 243 -95 120 -186 254 -229 338 -77 153 -110 329 -86 453 35 178 120 316
398 649 103 124 217 266 252 315 77 108 173 302 200 404 97 359 -7 715 -324
1110 -126 158 -210 238 -268 255 -56 17 -55 17 -112 4z"/>
<path d="M6664 11481 c-84 -21 -149 -91 -160 -174 -11 -75 10 -126 81 -205
301 -334 420 -582 385 -804 -25 -166 -111 -312 -351 -597 -311 -370 -396 -496
-472 -702 -49 -134 -62 -212 -61 -374 2 -161 24 -264 92 -428 93 -223 335
-567 435 -619 130 -68 289 19 304 165 7 70 -14 117 -104 227 -267 330 -360
614 -279 853 55 162 119 259 373 563 101 121 213 261 248 310 386 539 315
1052 -229 1657 -100 112 -176 149 -262 128z"/>
<path d="M1075 7346 c-90 -28 -156 -86 -197 -171 l-28 -60 0 -290 c0 -1160
149 -2217 425 -3025 166 -485 407 -972 680 -1371 l95 -139 -870 0 c-894 0
-934 -2 -1010 -40 -53 -27 -110 -88 -139 -150 -21 -44 -26 -70 -26 -130 0
-111 27 -161 167 -307 62 -65 206 -224 319 -353 113 -129 260 -290 327 -357
496 -500 1061 -735 2192 -910 l245 -38 2108 -3 2108 -2 192 30 c741 118 1245
258 1635 454 355 178 561 345 970 784 141 153 313 336 383 407 145 150 164
186 163 300 0 50 -7 85 -23 122 -27 62 -102 135 -169 166 l-47 22 -927 3 -928
3 54 72 c208 282 442 683 572 982 52 121 55 125 61 108 11 -29 108 -181 161
-251 76 -99 215 -236 317 -312 44 -33 139 -89 210 -125 210 -104 386 -145 632
-145 642 0 1265 401 1670 1075 195 325 315 660 375 1050 17 111 21 187 22 370
0 255 -13 374 -64 583 -135 553 -490 997 -946 1183 -574 234 -1269 65 -1782
-435 l-73 -71 3 370 3 370 -26 56 c-33 69 -88 124 -159 158 l-55 26 -4290 2
c-3428 1 -4298 -1 -4330 -11z m10400 -1026 c323 -101 567 -414 656 -843 27
-130 37 -425 20 -578 -44 -386 -198 -771 -430 -1074 -76 -101 -231 -253 -334
-331 -120 -91 -287 -174 -422 -211 -86 -23 -120 -27 -240 -27 -156 -1 -228 15
-355 79 -318 160 -531 546 -559 1014 -30 509 120 1006 426 1413 231 306 526
509 833 574 100 21 316 12 405 -16z"/>
</g>
</svg>
